<svg width="284" height="284" viewBox="0 0 284 284" fill="none" xmlns="http://www.w3.org/2000/svg">
<path d="M135.7 82.6425H148.552C150.064 91.3365 150.442 97.3845 152.71 125.356C162.916 121.198 181.06 113.638 193.912 109.48L198.826 121.198C186.352 130.271 171.61 139.72 161.404 145.39C170.476 151.06 171.232 151.438 200.338 171.472L191.266 182.812C185.218 179.788 158.38 167.692 152.71 165.046C152.71 167.314 149.686 193.774 147.796 209.272H134.944C132.298 183.946 131.92 181.678 130.786 163.912C115.288 171.472 110.374 173.74 89.584 182.434L83.536 172.228C91.474 165.802 92.986 164.668 120.202 146.146C109.996 138.586 93.742 124.979 86.56 118.552L92.23 108.724C109.618 115.906 111.13 116.662 130.408 126.49C131.542 118.93 134.566 92.0925 135.7 82.6425Z" fill="#7E8BC6"/>
</svg>
